<svg width="300" height="300" viewBox="0 0 300 300" fill="none" xmlns="http://www.w3.org/2000/svg">
<path d="M10.1628 160.217C9.98857 150.989 9.90756 145.976 10.1607 136.95C11.3678 93.9041 26.3596 62.5029 49.0779 41.8091C71.9044 21.0168 103.465 10.1902 139.208 10.1899C143.188 10.1899 146.366 10.1335 149.281 10.0819C154.387 9.99129 158.686 9.91506 165.074 10.1813C204.238 11.8133 233.988 22.5546 254.448 42.3457C274.864 62.0938 287.418 92.1974 289.457 135.446C289.475 135.816 289.492 136.18 289.509 136.54C290.023 147.402 290.304 153.347 289.477 163.86C286.586 200.621 277.805 229.632 259.143 250.481C240.628 271.165 210.979 285.36 162.943 289.465C153.382 290.282 147.683 290.026 138.333 289.606C137.137 289.552 135.881 289.495 134.55 289.438C96.9233 287.82 66.4574 276.155 45.2335 255.223C24.0714 234.351 10.9736 203.157 10.1628 160.217Z" fill="#C8C5B8" stroke="white" stroke-width="20"/>
<path d="M10.1628 160.217C9.98857 150.989 9.90756 145.976 10.1607 136.95C11.3678 93.9041 26.3596 62.5029 49.0779 41.8091C71.9044 21.0168 103.465 10.1902 139.208 10.1899C143.188 10.1899 146.366 10.1335 149.281 10.0819C154.387 9.99129 158.686 9.91506 165.074 10.1813C204.238 11.8133 233.988 22.5546 254.448 42.3457C274.864 62.0938 287.418 92.1974 289.457 135.446C289.475 135.816 289.492 136.18 289.509 136.54C290.023 147.402 290.304 153.347 289.477 163.86C286.586 200.621 277.805 229.632 259.143 250.481C240.628 271.165 210.979 285.36 162.943 289.465C153.382 290.282 147.683 290.026 138.333 289.606C137.137 289.552 135.881 289.495 134.55 289.438C96.9233 287.82 66.4574 276.155 45.2335 255.223C24.0714 234.351 10.9736 203.157 10.1628 160.217Z" stroke="#FF4B10" stroke-opacity="0.1" stroke-width="20"/>
<path d="M8.66307 160.245C8.48872 151.012 8.40714 145.97 8.66124 136.908C9.87809 93.5162 25.0056 61.7072 48.0678 40.7001C71.2219 19.6094 103.167 8.69019 139.208 8.68994C143.131 8.68991 146.291 8.6341 149.202 8.58267C154.343 8.49186 158.709 8.41473 165.136 8.68257C204.53 10.3241 234.682 21.1391 255.491 41.2676C276.262 61.3595 288.904 91.8748 290.956 135.375C290.974 135.751 290.991 136.12 291.008 136.485C291.522 147.343 291.807 153.369 290.973 163.978C288.07 200.883 279.239 230.279 260.261 251.481C241.407 272.544 211.341 286.835 163.071 290.96C153.409 291.785 147.618 291.525 138.266 291.104C137.07 291.05 135.815 290.994 134.486 290.937C96.5894 289.307 65.7337 277.548 44.1802 256.29C22.6792 235.084 9.47949 203.484 8.66307 160.245Z" stroke="url(#paint0_linear)" stroke-width="17"/>
<path d="M175.167 94.9167H157.417C156.864 94.9167 156.417 94.469 156.417 93.9167V76.1667C156.417 73.8659 154.551 72 152.25 72H148.083C145.783 72 143.917 73.8659 143.917 76.1667V93.9167C143.917 94.469 143.469 94.9167 142.917 94.9167H125.167C122.866 94.9167 121 96.7826 121 99.0833C121 101.384 121 103.25 121 103.25C121 103.25 121 103.25 121 103.25C121 105.551 122.866 107.417 125.167 107.417H142.917C143.469 107.417 143.917 107.864 143.917 108.417V126.167C143.917 128.467 145.783 130.333 148.083 130.333H152.25C154.551 130.333 156.417 128.467 156.417 126.167V108.417C156.417 107.864 156.864 107.417 157.417 107.417H175.167C177.467 107.417 179.333 105.551 179.333 103.25V99.0833C179.333 96.7826 177.467 94.9167 175.167 94.9167Z" fill="black" fill-opacity="0.3"/>
<path d="M80.3974 151.08C80.8667 150.525 81.4214 150.248 82.0614 150.248C82.6587 150.248 83.192 150.483 83.6614 150.952C84.152 151.4 84.3974 151.923 84.3974 152.52C84.3974 153.053 84.1947 153.555 83.7894 154.024L76.7814 162.344V170.696C76.7814 171.507 76.5467 172.125 76.0774 172.552C75.608 172.979 75.0214 173.192 74.3174 173.192C73.5707 173.192 72.9627 172.979 72.4934 172.552C72.024 172.125 71.7894 171.507 71.7894 170.696V162.344L64.8454 154.024C64.44 153.597 64.2374 153.096 64.2374 152.52C64.2374 151.923 64.4614 151.4 64.9094 150.952C65.3787 150.483 65.912 150.248 66.5094 150.248C67.1494 150.248 67.704 150.525 68.1734 151.08L74.2854 158.536L80.3974 151.08ZM91.2986 173.256C89.6346 173.256 88.1733 172.925 86.9146 172.264C85.656 171.581 84.6853 170.632 84.0026 169.416C83.32 168.179 82.9786 166.728 82.9786 165.064C82.9786 163.4 83.32 161.96 84.0026 160.744C84.6853 159.507 85.656 158.557 86.9146 157.896C88.1733 157.235 89.6346 156.904 91.2986 156.904C92.9626 156.904 94.424 157.235 95.6826 157.896C96.9413 158.557 97.912 159.507 98.5946 160.744C99.2773 161.96 99.6186 163.4 99.6186 165.064C99.6186 166.728 99.2773 168.179 98.5946 169.416C97.912 170.632 96.9413 171.581 95.6826 172.264C94.424 172.925 92.9626 173.256 91.2986 173.256ZM91.2986 169.576C93.6453 169.576 94.8186 168.072 94.8186 165.064C94.8186 163.549 94.5093 162.419 93.8906 161.672C93.2933 160.925 92.4293 160.552 91.2986 160.552C88.952 160.552 87.7786 162.056 87.7786 165.064C87.7786 168.072 88.952 169.576 91.2986 169.576ZM115.263 156.968C116.01 156.968 116.596 157.171 117.023 157.576C117.471 157.981 117.695 158.536 117.695 159.24V170.984C117.695 171.645 117.46 172.179 116.991 172.584C116.543 172.989 115.956 173.192 115.231 173.192C114.548 173.192 114.004 173 113.599 172.616C113.194 172.232 112.991 171.72 112.991 171.08V170.76C112.5 171.571 111.85 172.189 111.039 172.616C110.25 173.043 109.354 173.256 108.351 173.256C106.367 173.256 104.884 172.712 103.903 171.624C102.943 170.515 102.463 168.851 102.463 166.632V159.24C102.463 158.536 102.676 157.981 103.103 157.576C103.551 157.171 104.148 156.968 104.895 156.968C105.642 156.968 106.228 157.171 106.655 157.576C107.082 157.981 107.295 158.536 107.295 159.24V166.728C107.295 167.667 107.487 168.36 107.871 168.808C108.276 169.256 108.884 169.48 109.695 169.48C110.634 169.48 111.391 169.16 111.967 168.52C112.564 167.88 112.863 167.037 112.863 165.992V159.24C112.863 158.536 113.076 157.981 113.503 157.576C113.93 157.171 114.516 156.968 115.263 156.968ZM130.779 156.968C131.419 156.925 131.92 157.075 132.283 157.416C132.667 157.736 132.859 158.227 132.859 158.888C132.859 159.592 132.688 160.115 132.347 160.456C132.006 160.797 131.398 161.011 130.523 161.096L129.563 161.192C128.39 161.32 127.536 161.704 127.003 162.344C126.491 162.984 126.235 163.805 126.235 164.808V170.92C126.235 171.667 126 172.232 125.531 172.616C125.083 173 124.518 173.192 123.835 173.192C123.131 173.192 122.544 173 122.075 172.616C121.627 172.232 121.403 171.667 121.403 170.92V159.176C121.403 158.472 121.638 157.928 122.107 157.544C122.576 157.16 123.142 156.968 123.803 156.968C124.443 156.968 124.976 157.16 125.403 157.544C125.83 157.907 126.043 158.419 126.043 159.08V159.944C126.427 159.027 127.003 158.323 127.771 157.832C128.56 157.341 129.414 157.064 130.331 157L130.779 156.968ZM150.256 156.904C152.56 156.904 154.267 157.469 155.376 158.6C156.485 159.709 157.04 161.416 157.04 163.72V170.952C157.04 171.656 156.837 172.211 156.432 172.616C156.027 173 155.461 173.192 154.736 173.192C154.053 173.192 153.499 172.989 153.072 172.584C152.667 172.157 152.464 171.613 152.464 170.952V170.728C152.144 171.517 151.611 172.136 150.864 172.584C150.117 173.032 149.243 173.256 148.24 173.256C147.173 173.256 146.203 173.043 145.328 172.616C144.475 172.189 143.792 171.592 143.28 170.824C142.789 170.056 142.544 169.203 142.544 168.264C142.544 167.112 142.832 166.205 143.408 165.544C144.005 164.883 144.955 164.403 146.256 164.104C147.557 163.805 149.339 163.656 151.6 163.656H152.432V163.08C152.432 162.184 152.229 161.533 151.824 161.128C151.44 160.723 150.789 160.52 149.872 160.52C148.955 160.52 147.632 160.84 145.904 161.48C145.413 161.715 144.997 161.832 144.656 161.832C144.187 161.832 143.813 161.672 143.536 161.352C143.259 161.011 143.12 160.573 143.12 160.04C143.12 159.613 143.216 159.261 143.408 158.984C143.6 158.707 143.909 158.451 144.336 158.216C145.083 157.811 145.989 157.491 147.056 157.256C148.144 157.021 149.211 156.904 150.256 156.904ZM149.296 169.928C150.235 169.928 150.992 169.619 151.568 169C152.144 168.36 152.432 167.539 152.432 166.536V165.992H151.888C150.16 165.992 148.944 166.131 148.24 166.408C147.557 166.685 147.216 167.187 147.216 167.912C147.216 168.509 147.408 169 147.792 169.384C148.197 169.747 148.699 169.928 149.296 169.928ZM171.373 158.344C171.586 157.896 171.864 157.565 172.205 157.352C172.568 157.117 172.952 157 173.357 157C173.954 157 174.488 157.203 174.957 157.608C175.426 157.992 175.661 158.461 175.661 159.016C175.661 159.336 175.586 159.645 175.437 159.944L169.677 171.752C169.464 172.221 169.144 172.584 168.717 172.84C168.29 173.075 167.832 173.192 167.341 173.192C166.85 173.192 166.392 173.075 165.965 172.84C165.538 172.584 165.208 172.221 164.973 171.752L159.213 159.944C159.085 159.645 159.021 159.357 159.021 159.08C159.021 158.504 159.266 158.013 159.757 157.608C160.269 157.203 160.834 157 161.453 157C161.901 157 162.306 157.117 162.669 157.352C163.032 157.565 163.32 157.896 163.533 158.344L167.469 166.952L171.373 158.344ZM184.662 156.904C186.966 156.904 188.673 157.469 189.782 158.6C190.892 159.709 191.446 161.416 191.446 163.72V170.952C191.446 171.656 191.244 172.211 190.838 172.616C190.433 173 189.868 173.192 189.142 173.192C188.46 173.192 187.905 172.989 187.478 172.584C187.073 172.157 186.87 171.613 186.87 170.952V170.728C186.55 171.517 186.017 172.136 185.27 172.584C184.524 173.032 183.649 173.256 182.646 173.256C181.58 173.256 180.609 173.043 179.734 172.616C178.881 172.189 178.198 171.592 177.686 170.824C177.196 170.056 176.95 169.203 176.95 168.264C176.95 167.112 177.238 166.205 177.814 165.544C178.412 164.883 179.361 164.403 180.662 164.104C181.964 163.805 183.745 163.656 186.006 163.656H186.838V163.08C186.838 162.184 186.636 161.533 186.23 161.128C185.846 160.723 185.196 160.52 184.278 160.52C183.361 160.52 182.038 160.84 180.31 161.48C179.82 161.715 179.404 161.832 179.062 161.832C178.593 161.832 178.22 161.672 177.942 161.352C177.665 161.011 177.526 160.573 177.526 160.04C177.526 159.613 177.622 159.261 177.814 158.984C178.006 158.707 178.316 158.451 178.742 158.216C179.489 157.811 180.396 157.491 181.462 157.256C182.55 157.021 183.617 156.904 184.662 156.904ZM183.702 169.928C184.641 169.928 185.398 169.619 185.974 169C186.55 168.36 186.838 167.539 186.838 166.536V165.992H186.294C184.566 165.992 183.35 166.131 182.646 166.408C181.964 166.685 181.622 167.187 181.622 167.912C181.622 168.509 181.814 169 182.198 169.384C182.604 169.747 183.105 169.928 183.702 169.928ZM203.795 169.672C204.435 169.715 204.904 169.875 205.203 170.152C205.502 170.429 205.651 170.835 205.651 171.368C205.651 171.987 205.406 172.456 204.915 172.776C204.424 173.096 203.72 173.224 202.803 173.16L201.907 173.096C198.174 172.797 196.307 170.845 196.307 167.24V160.904H195.027C194.323 160.904 193.79 160.755 193.427 160.456C193.064 160.136 192.883 159.688 192.883 159.112C192.883 158.515 193.064 158.067 193.427 157.768C193.79 157.448 194.323 157.288 195.027 157.288H196.307V154.792C196.307 154.088 196.52 153.533 196.947 153.128C197.395 152.723 197.992 152.52 198.739 152.52C199.486 152.52 200.072 152.723 200.499 153.128C200.926 153.533 201.139 154.088 201.139 154.792V157.288H203.379C204.83 157.288 205.555 157.896 205.555 159.112C205.555 159.688 205.374 160.136 205.011 160.456C204.648 160.755 204.104 160.904 203.379 160.904H201.139V167.592C201.139 168.232 201.288 168.723 201.587 169.064C201.886 169.384 202.323 169.565 202.899 169.608L203.795 169.672ZM214.506 156.904C216.81 156.904 218.517 157.469 219.626 158.6C220.735 159.709 221.29 161.416 221.29 163.72V170.952C221.29 171.656 221.087 172.211 220.682 172.616C220.277 173 219.711 173.192 218.986 173.192C218.303 173.192 217.749 172.989 217.322 172.584C216.917 172.157 216.714 171.613 216.714 170.952V170.728C216.394 171.517 215.861 172.136 215.114 172.584C214.367 173.032 213.493 173.256 212.49 173.256C211.423 173.256 210.453 173.043 209.578 172.616C208.725 172.189 208.042 171.592 207.53 170.824C207.039 170.056 206.794 169.203 206.794 168.264C206.794 167.112 207.082 166.205 207.658 165.544C208.255 164.883 209.205 164.403 210.506 164.104C211.807 163.805 213.589 163.656 215.85 163.656H216.682V163.08C216.682 162.184 216.479 161.533 216.074 161.128C215.69 160.723 215.039 160.52 214.122 160.52C213.205 160.52 211.882 160.84 210.154 161.48C209.663 161.715 209.247 161.832 208.906 161.832C208.437 161.832 208.063 161.672 207.786 161.352C207.509 161.011 207.37 160.573 207.37 160.04C207.37 159.613 207.466 159.261 207.658 158.984C207.85 158.707 208.159 158.451 208.586 158.216C209.333 157.811 210.239 157.491 211.306 157.256C212.394 157.021 213.461 156.904 214.506 156.904ZM213.546 169.928C214.485 169.928 215.242 169.619 215.818 169C216.394 168.36 216.682 167.539 216.682 166.536V165.992H216.138C214.41 165.992 213.194 166.131 212.49 166.408C211.807 166.685 211.466 167.187 211.466 167.912C211.466 168.509 211.658 169 212.042 169.384C212.447 169.747 212.949 169.928 213.546 169.928ZM234.279 156.968C234.919 156.925 235.42 157.075 235.783 157.416C236.167 157.736 236.359 158.227 236.359 158.888C236.359 159.592 236.188 160.115 235.847 160.456C235.506 160.797 234.898 161.011 234.023 161.096L233.063 161.192C231.89 161.32 231.036 161.704 230.503 162.344C229.991 162.984 229.735 163.805 229.735 164.808V170.92C229.735 171.667 229.5 172.232 229.031 172.616C228.583 173 228.018 173.192 227.335 173.192C226.631 173.192 226.044 173 225.575 172.616C225.127 172.232 224.903 171.667 224.903 170.92V159.176C224.903 158.472 225.138 157.928 225.607 157.544C226.076 157.16 226.642 156.968 227.303 156.968C227.943 156.968 228.476 157.16 228.903 157.544C229.33 157.907 229.543 158.419 229.543 159.08V159.944C229.927 159.027 230.503 158.323 231.271 157.832C232.06 157.341 232.914 157.064 233.831 157L234.279 156.968ZM124.808 200.904C128.456 200.904 130.28 203.112 130.28 207.528V214.92C130.28 215.624 130.056 216.179 129.608 216.584C129.181 216.989 128.595 217.192 127.848 217.192C127.101 217.192 126.515 216.989 126.088 216.584C125.661 216.179 125.448 215.624 125.448 214.92V207.464C125.448 206.525 125.245 205.832 124.84 205.384C124.456 204.915 123.848 204.68 123.016 204.68C122.013 204.68 121.203 205 120.584 205.64C119.987 206.28 119.688 207.133 119.688 208.2V214.92C119.688 215.624 119.475 216.179 119.048 216.584C118.621 216.989 118.035 217.192 117.288 217.192C116.541 217.192 115.944 216.989 115.496 216.584C115.069 216.179 114.856 215.624 114.856 214.92V196.488C114.856 195.827 115.08 195.293 115.528 194.888C115.997 194.483 116.605 194.28 117.352 194.28C118.056 194.28 118.621 194.472 119.048 194.856C119.475 195.24 119.688 195.752 119.688 196.392V203.368C120.243 202.557 120.957 201.949 121.832 201.544C122.707 201.117 123.699 200.904 124.808 200.904ZM146.495 212.328C146.922 212.328 147.263 212.499 147.519 212.84C147.797 213.181 147.935 213.619 147.935 214.152C147.935 214.515 147.829 214.856 147.615 215.176C147.402 215.475 147.103 215.731 146.719 215.944C145.994 216.328 145.151 216.648 144.191 216.904C143.231 217.139 142.346 217.256 141.535 217.256C139.829 217.256 138.335 216.925 137.055 216.264C135.797 215.603 134.826 214.664 134.143 213.448C133.461 212.211 133.119 210.76 133.119 209.096C133.119 207.496 133.45 206.077 134.111 204.84C134.773 203.603 135.69 202.643 136.863 201.96C138.037 201.256 139.37 200.904 140.863 200.904C142.293 200.904 143.541 201.224 144.607 201.864C145.695 202.483 146.538 203.379 147.135 204.552C147.733 205.704 148.031 207.059 148.031 208.616C148.031 209.085 147.914 209.448 147.679 209.704C147.466 209.939 147.157 210.056 146.751 210.056H137.791C137.941 211.315 138.325 212.232 138.943 212.808C139.562 213.363 140.447 213.64 141.599 213.64C142.218 213.64 142.773 213.565 143.263 213.416C143.754 213.267 144.298 213.064 144.895 212.808C145.194 212.68 145.482 212.573 145.759 212.488C146.037 212.381 146.282 212.328 146.495 212.328ZM140.991 204.232C140.074 204.232 139.338 204.531 138.783 205.128C138.229 205.704 137.898 206.547 137.791 207.656H143.967C143.903 206.525 143.615 205.672 143.103 205.096C142.613 204.52 141.909 204.232 140.991 204.232ZM160.326 200.968C160.966 200.925 161.467 201.075 161.83 201.416C162.214 201.736 162.406 202.227 162.406 202.888C162.406 203.592 162.235 204.115 161.894 204.456C161.552 204.797 160.944 205.011 160.07 205.096L159.11 205.192C157.936 205.32 157.083 205.704 156.55 206.344C156.038 206.984 155.782 207.805 155.782 208.808V214.92C155.782 215.667 155.547 216.232 155.078 216.616C154.63 217 154.064 217.192 153.382 217.192C152.678 217.192 152.091 217 151.622 216.616C151.174 216.232 150.95 215.667 150.95 214.92V203.176C150.95 202.472 151.184 201.928 151.654 201.544C152.123 201.16 152.688 200.968 153.35 200.968C153.99 200.968 154.523 201.16 154.95 201.544C155.376 201.907 155.59 202.419 155.59 203.08V203.944C155.974 203.027 156.55 202.323 157.318 201.832C158.107 201.341 158.96 201.064 159.878 201L160.326 200.968ZM176.089 212.328C176.516 212.328 176.857 212.499 177.113 212.84C177.39 213.181 177.529 213.619 177.529 214.152C177.529 214.515 177.422 214.856 177.209 215.176C176.996 215.475 176.697 215.731 176.313 215.944C175.588 216.328 174.745 216.648 173.785 216.904C172.825 217.139 171.94 217.256 171.129 217.256C169.422 217.256 167.929 216.925 166.649 216.264C165.39 215.603 164.42 214.664 163.737 213.448C163.054 212.211 162.713 210.76 162.713 209.096C162.713 207.496 163.044 206.077 163.705 204.84C164.366 203.603 165.284 202.643 166.457 201.96C167.63 201.256 168.964 200.904 170.457 200.904C171.886 200.904 173.134 201.224 174.201 201.864C175.289 202.483 176.132 203.379 176.729 204.552C177.326 205.704 177.625 207.059 177.625 208.616C177.625 209.085 177.508 209.448 177.273 209.704C177.06 209.939 176.75 210.056 176.345 210.056H167.385C167.534 211.315 167.918 212.232 168.537 212.808C169.156 213.363 170.041 213.64 171.193 213.64C171.812 213.64 172.366 213.565 172.857 213.416C173.348 213.267 173.892 213.064 174.489 212.808C174.788 212.68 175.076 212.573 175.353 212.488C175.63 212.381 175.876 212.328 176.089 212.328ZM170.585 204.232C169.668 204.232 168.932 204.531 168.377 205.128C167.822 205.704 167.492 206.547 167.385 207.656H173.561C173.497 206.525 173.209 205.672 172.697 205.096C172.206 204.52 171.502 204.232 170.585 204.232ZM182.848 210.024C182.464 210.024 182.133 209.896 181.856 209.64C181.6 209.384 181.44 209.011 181.376 208.52L179.968 197.32C179.946 197.213 179.936 197.064 179.936 196.872C179.936 196.083 180.213 195.453 180.768 194.984C181.322 194.515 182.016 194.28 182.848 194.28C183.765 194.28 184.501 194.557 185.056 195.112C185.632 195.667 185.856 196.413 185.728 197.352L184.288 208.52C184.245 209.011 184.085 209.384 183.808 209.64C183.552 209.896 183.232 210.024 182.848 210.024ZM182.848 217.192C182.058 217.192 181.408 216.936 180.896 216.424C180.384 215.891 180.128 215.229 180.128 214.44C180.128 213.651 180.384 213 180.896 212.488C181.408 211.955 182.058 211.688 182.848 211.688C183.637 211.688 184.288 211.955 184.8 212.488C185.312 213 185.568 213.651 185.568 214.44C185.568 215.229 185.312 215.891 184.8 216.424C184.288 216.936 183.637 217.192 182.848 217.192Z" fill="#8C8A81"/>
<defs>
<linearGradient id="paint0_linear" x1="0" y1="0" x2="300" y2="300" gradientUnits="userSpaceOnUse">
<stop stop-color="#D2D50B"/>
<stop offset="1" stop-color="#2B7E16"/>
</linearGradient>
</defs>
</svg>
