<svg width="16" height="16" viewBox="0 0 16 16" fill="none" xmlns="http://www.w3.org/2000/svg">
<path d="M15.1875 7.0625H8.9375V0.8125C8.9375 0.639844 8.79766 0.5 8.625 0.5H7.375C7.20234 0.5 7.0625 0.639844 7.0625 0.8125V7.0625H0.8125C0.639844 7.0625 0.5 7.20234 0.5 7.375V8.625C0.5 8.79766 0.639844 8.9375 0.8125 8.9375H7.0625V15.1875C7.0625 15.3602 7.20234 15.5 7.375 15.5H8.625C8.79766 15.5 8.9375 15.3602 8.9375 15.1875V8.9375H15.1875C15.3602 8.9375 15.5 8.79766 15.5 8.625V7.375C15.5 7.20234 15.3602 7.0625 15.1875 7.0625Z" fill="#6E664E"/>
</svg>
