<svg width="300" height="300" viewBox="0 0 300 300" fill="none" xmlns="http://www.w3.org/2000/svg">
<path d="M10.1628 160.217C9.98857 150.989 9.90756 145.976 10.1607 136.95C11.3678 93.9041 26.3596 62.5029 49.0779 41.8091C71.9044 21.0168 103.465 10.1902 139.208 10.1899C143.188 10.1899 146.366 10.1335 149.281 10.0819C154.387 9.99129 158.686 9.91506 165.074 10.1813C204.238 11.8133 233.988 22.5546 254.448 42.3457C274.864 62.0938 287.418 92.1974 289.457 135.446C289.475 135.816 289.492 136.18 289.509 136.54C290.023 147.402 290.304 153.347 289.477 163.86C286.586 200.621 277.805 229.632 259.143 250.481C240.628 271.165 210.979 285.36 162.943 289.465C153.382 290.282 147.683 290.026 138.333 289.606C137.137 289.552 135.881 289.495 134.55 289.438C96.9233 287.82 66.4574 276.155 45.2335 255.223C24.0714 234.351 10.9736 203.157 10.1628 160.217Z" stroke="white" stroke-width="20"/>
<path d="M10.1628 160.217C9.98857 150.989 9.90756 145.976 10.1607 136.95C11.3678 93.9041 26.3596 62.5029 49.0779 41.8091C71.9044 21.0168 103.465 10.1902 139.208 10.1899C143.188 10.1899 146.366 10.1335 149.281 10.0819C154.387 9.99129 158.686 9.91506 165.074 10.1813C204.238 11.8133 233.988 22.5546 254.448 42.3457C274.864 62.0938 287.418 92.1974 289.457 135.446C289.475 135.816 289.492 136.18 289.509 136.54C290.023 147.402 290.304 153.347 289.477 163.86C286.586 200.621 277.805 229.632 259.143 250.481C240.628 271.165 210.979 285.36 162.943 289.465C153.382 290.282 147.683 290.026 138.333 289.606C137.137 289.552 135.881 289.495 134.55 289.438C96.9233 287.82 66.4574 276.155 45.2335 255.223C24.0714 234.351 10.9736 203.157 10.1628 160.217Z" stroke="#FF4B10" stroke-opacity="0.1" stroke-width="20"/>
<g filter="url(#filter0_i)">
<path d="M8.66307 160.245C8.48872 151.012 8.40714 145.97 8.66124 136.908C9.87809 93.5162 25.0056 61.7072 48.0678 40.7001C71.2219 19.6094 103.167 8.69019 139.208 8.68994C143.131 8.68991 146.291 8.6341 149.202 8.58267C154.343 8.49186 158.709 8.41473 165.136 8.68257C204.53 10.3241 234.682 21.1391 255.491 41.2676C276.262 61.3595 288.904 91.8748 290.956 135.375C290.974 135.751 290.991 136.12 291.008 136.485C291.522 147.343 291.807 153.369 290.973 163.978C288.07 200.883 279.239 230.279 260.261 251.481C241.407 272.544 211.341 286.835 163.071 290.96C153.409 291.785 147.618 291.525 138.266 291.104C137.07 291.05 135.815 290.994 134.486 290.937C96.5894 289.307 65.7337 277.548 44.1802 256.29C22.6792 235.084 9.47949 203.484 8.66307 160.245Z" stroke="url(#paint0_linear)" stroke-width="17"/>
</g>
<defs>
<filter id="filter0_i" x="0" y="0" width="300" height="304" filterUnits="userSpaceOnUse" color-interpolation-filters="sRGB">
<feFlood flood-opacity="0" result="BackgroundImageFix"/>
<feBlend mode="normal" in="SourceGraphic" in2="BackgroundImageFix" result="shape"/>
<feColorMatrix in="SourceAlpha" type="matrix" values="0 0 0 0 0 0 0 0 0 0 0 0 0 0 0 0 0 0 127 0" result="hardAlpha"/>
<feOffset dy="4"/>
<feGaussianBlur stdDeviation="4"/>
<feComposite in2="hardAlpha" operator="arithmetic" k2="-1" k3="1"/>
<feColorMatrix type="matrix" values="0 0 0 0 1 0 0 0 0 1 0 0 0 0 1 0 0 0 0.35 0"/>
<feBlend mode="normal" in2="shape" result="effect1_innerShadow"/>
</filter>
<linearGradient id="paint0_linear" x1="0" y1="0" x2="300" y2="300" gradientUnits="userSpaceOnUse">
<stop stop-color="#FF9A0F"/>
<stop offset="1" stop-color="#FF2E10"/>
</linearGradient>
</defs>
</svg>
